<svg width="14" height="14" viewBox="0 0 14 14" fill="none" xmlns="http://www.w3.org/2000/svg">
<path d="M7 0C3.134 0 0 3.13401 0 7C0 10.866 3.134 14 7 14C10.866 14 14 10.866 14 7C14 3.13401 10.866 0 7 0ZM6 2H8V6L7.5 9H6.5L6 6V2ZM7 10C7.26522 10 7.51957 10.1054 7.70711 10.2929C7.89464 10.4804 8 10.7348 8 11C8 11.2652 7.89464 11.5196 7.70711 11.7071C7.51957 11.8946 7.26522 12 7 12C6.73478 12 6.48043 11.8946 6.29289 11.7071C6.10536 11.5196 6 11.2652 6 11C6 10.7348 6.10536 10.4804 6.29289 10.2929C6.48043 10.1054 6.73478 10 7 10Z" fill="#EF2929"/>
</svg>
