<svg width="20" height="20" viewBox="0 0 20 20" fill="none" xmlns="http://www.w3.org/2000/svg">
<g clip-path="url(#clip0_1222_43181)">
<path d="M13.9915 5.70697L14.0264 14.0569C14.0294 14.3825 13.9676 14.7056 13.8443 15.0071C13.7211 15.3086 13.539 15.5825 13.3087 15.8128C13.0784 16.0431 12.8046 16.2252 12.503 16.3483C12.2016 16.4716 11.8785 16.5335 11.5529 16.5304L9.0444 16.5095C8.38809 16.5043 7.76015 16.2414 7.29606 15.7773C6.83198 15.3132 6.56899 14.6852 6.56389 14.0289L6.54991 5.15497C6.54884 4.89408 6.59944 4.63555 6.69879 4.39431C6.79814 4.15306 6.94426 3.93388 7.12875 3.74939C7.31323 3.56491 7.53242 3.41878 7.77367 3.31942C8.01489 3.2201 8.27343 3.16949 8.53431 3.17058L9.52652 3.17058C9.78746 3.16946 10.046 3.22008 10.2872 3.31945C10.5285 3.41875 10.7476 3.56492 10.9321 3.74941C11.1166 3.93389 11.2628 4.15304 11.3621 4.39432C11.4614 4.63554 11.5121 4.89405 11.5109 5.15499L11.5249 13.0227C11.5255 13.1532 11.5002 13.2825 11.4505 13.4031C11.4008 13.5237 11.3277 13.6333 11.2355 13.7255C11.1432 13.8178 11.0337 13.8909 10.913 13.9405C10.7925 13.9902 10.6632 14.0155 10.5327 14.0149L10.0366 14.008C9.90616 14.0085 9.7769 13.9832 9.65628 13.9335C9.53567 13.8839 9.42607 13.8108 9.33383 13.7186C9.24159 13.6263 9.16852 13.5167 9.11884 13.3961C9.06917 13.2755 9.04387 13.1462 9.0444 13.0158L9.06537 7.76825" stroke="white" stroke-linecap="round" stroke-linejoin="round"/>
</g>
<defs>
<clipPath id="clip0_1222_43181">
<rect width="14" height="14" fill="white" transform="translate(0.10051 10) rotate(-45)"/>
</clipPath>
</defs>
</svg>
