<svg width="20" height="20" viewBox="0 0 20 20" fill="none" xmlns="http://www.w3.org/2000/svg">
<path d="M6.76438 15.2575C6.70001 15.4139 6.64917 15.5056 6.64908 15.6368C6.64907 15.7679 6.7011 15.8936 6.79377 15.9862C6.88644 16.0789 7.01216 16.131 7.14324 16.1309C7.27438 16.1308 7.33577 16.148 7.54209 16.0352C7.74848 15.9224 18.1281 10.7876 18.1281 10.7876C18.2943 10.7062 18.4343 10.5798 18.5322 10.4228C18.6302 10.2658 18.6821 10.0845 18.6822 9.89957C18.6823 9.7146 18.6304 9.53335 18.5326 9.37644C18.4348 9.21953 18.2949 9.09324 18.1288 9.01192C18.1288 9.01192 7.63279 3.8848 7.49379 3.81138C7.35479 3.73797 7.23717 3.70497 7.10605 3.705C6.97492 3.70503 6.84921 3.7572 6.75647 3.84994C6.66373 3.94269 6.61155 4.0684 6.61153 4.19952C6.6115 4.33065 6.63363 4.38276 6.72886 4.57631C6.82409 4.76987 9.31284 9.90314 9.31284 9.90314C9.31284 9.90314 6.82874 15.1011 6.76438 15.2575Z" stroke="#626262" stroke-linecap="round" stroke-linejoin="round"/>
</svg>
