<svg width="14" height="14" viewBox="0 0 14 14" fill="none" xmlns="http://www.w3.org/2000/svg">
<path d="M7 0C5.14348 0 3.36299 0.737493 2.05023 2.05025C0.737477 3.363 0 5.14348 0 7C0 8.85652 0.737477 10.637 2.05023 11.9498C3.36299 13.2625 5.14348 14 7 14C8.85652 14 10.637 13.2625 11.9498 11.9498C13.2625 10.637 14 8.85652 14 7C14 5.14348 13.2625 3.363 11.9498 2.05025C10.637 0.737493 8.85652 0 7 0ZM10.48 3.783C11.392 3.757 11.861 4.864 11.207 5.5L6 10.707L3.09302 7.8C2.11102 6.858 3.56502 5.404 4.50702 6.386L6 7.879L9.79303 4.086C9.97423 3.89936 10.221 3.79068 10.481 3.783H10.48Z" fill="#4E9A06"/>
</svg>
